#!OML:ASF G:\JayActor3\Patient Classification 1\Patient 1\Session 2\male.ASF
:FULLY-SPECIFIED
:DEGREES
2370
root -12.3249 16.572 -5.08963 2586.39 85.7747 65.5079
lowerback 3.78272 -1.36157 -6.32551
upperback 2.1566 -1.97055 -0.501114
thorax 0.303612 -1.02337 3.09199
lowerneck -13.6139 -1.61568 -1.99948
upperneck 1.43016 -2.17945 9.17673
head 2.75949 -0.647413 2.98912
rclavicle 3.59552e-014 1.81639e-014
rhumerus -54.7168 9.66853 -82.2047
rradius 33.179
rwrist -13.1982
rhand -19.2892 -0.594216
rfingers 7.12502
rthumb 7.02595 -30.4576
lclavicle 3.59552e-014 1.81639e-014
lhumerus -17.8557 -20.2924 85.3099
lradius 77.5334
lwrist 25.5822
lhand -18.1104 17.3442
lfingers 7.12502
lthumb 8.16377 47.1665
rfemur -39.2386 2.91788 17.6522
rtibia 35.4618
rfoot -18.3192 -5.63952
rtoes 5.99943
lfemur 18.7573 7.31371 -26.3796
ltibia 6.04305e-014
lfoot -12.2502 5.86457
ltoes -9.76828
2371
root -12.1397 16.5254 -5.09431 2587.87 85.4151 67.0692
lowerback 3.91166 -1.36208 -6.69965
upperback 2.29938 -1.98231 -0.504089
thorax 0.395214 -1.037 3.29936
lowerneck -13.4356 -1.57613 -2.06004
upperneck 0.820583 -2.06875 8.94518
head 2.81646 -0.632183 3.23693
rclavicle 2.86995e-015 -5.70419e-015
rhumerus -55.4011 10.3797 -82.4271
rradius 34.5073
rwrist -13.8398
rhand -19.2537 -0.757685
rfingers 7.12502
rthumb 7.06023 -30.6199
lclavicle 2.86995e-015 -5.70419e-015
lhumerus -17.3103 -20.5301 84.7783
lradius 78.6764
lwrist 25.6879
lhand -17.9009 17.2452
lfingers 7.12502
lthumb 8.36596 47.0595
rfemur -39.7342 3.68106 16.8627
rtibia 33.9162
rfoot -18.176 -5.30172
rtoes 5.88562
lfemur 19.5604 7.55367 -26.6485
ltibia 4.13472e-014
lfoot -12.6657 5.49353
ltoes -10.229
2372
root -11.9528 16.4789 -5.09871 2589.26 85.0876 68.5154
lowerback 4.02089 -1.37532 -7.02678
upperback 2.43047 -2.00918 -0.499778
thorax 0.486426 -1.05829 3.48804
lowerneck -13.3451 -1.51738 -1.96912
upperneck 0.52242 -1.97288 8.83819
head 2.68617 -0.595422 3.18277
rclavicle -1.22159e-014 -7.85199e-015
rhumerus -56.0545 11.0858 -82.6727
rradius 35.8376
rwrist -14.4418
rhand -19.2625 -0.896902
rfingers 7.12502
rthumb 7.05174 -30.7594
lclavicle -1.22159e-014 -7.85199e-015
lhumerus -16.8714 -20.6858 84.2913
lradius 79.7082
lwrist 25.7984
lhand -17.6673 17.1622
lfingers 7.12502
lthumb 8.59141 46.9674
rfemur -40.2078 4.29835 16.1435
rtibia 32.5375
rfoot -18.041 -4.9271
rtoes 5.72306
lfemur 20.3482 7.76686 -26.8773
ltibia -2.8625e-014
lfoot -12.9849 5.12361
ltoes -10.814
2373
root -11.7636 16.4331 -5.10381 2590.6 84.7975 69.8867
lowerback 4.10614 -1.40403 -7.28517
upperback 2.54872 -2.05376 -0.489714
thorax 0.577824 -1.08813 3.64424
lowerneck -13.2685 -1.45448 -1.84223
upperneck 0.277348 -1.88036 8.6829
head 2.57574 -0.560805 3.10571
rclavicle -1.36354e-014 1.10325e-014
rhumerus -56.6519 11.7714 -82.9271
rradius 37.1313
rwrist -14.9808
rhand -19.3152 -1.01238
rfingers 7.12502
rthumb 7.00085 -30.8766
lclavicle -1.36354e-014 1.10325e-014
lhumerus -16.5437 -20.7695 83.8564
lradius 80.6097
lwrist 25.8874
lhand -17.4342 17.1026
lfingers 7.12502
lthumb 8.81639 46.8985
rfemur -40.6503 4.66837 15.5593
rtibia 31.3444
rfoot -17.8762 -4.46071
rtoes 5.5431
lfemur 21.1209 7.9523 -27.0644
ltibia 6.36111e-014
lfoot -13.1988 4.7538
ltoes -11.522
2374
root -11.5715 16.3888 -5.11018 2591.91 84.5457 71.2184
lowerback 4.17219 -1.44941 -7.46421
upperback 2.65042 -2.11781 -0.473652
thorax 0.6626 -1.12682 3.76254
lowerneck -13.2106 -1.38652 -1.68298
upperneck 0.0975211 -1.79053 8.47513
head 2.49008 -0.527937 3.00547
rclavicle 1.0635e-014 2.68359e-015
rhumerus -57.1849 12.4301 -83.1789
rradius 38.3621
rwrist -15.4414
rhand -19.3966 -1.11329
rfingers 7.12502
rthumb 6.92232 -30.9801
lclavicle 1.0635e-014 2.68359e-015
lhumerus -16.3409 -20.7875 83.4867
lradius 81.3611
lwrist 25.9315
lhand -17.2058 17.0586
lfingers 7.12502
lthumb 9.03673 46.8451
rfemur -41.0442 4.75149 15.1462
rtibia 30.3554
rfoot -17.6588 -3.90069
rtoes 5.37934
lfemur 21.8829 8.1103 -27.2087
ltibia -5.08889e-014
lfoot -13.3009 4.3825
ltoes -12.3652
2375
root -11.3757 16.3466 -5.11793 2593.23 84.3302 72.5513
lowerback 4.22003 -1.51322 -7.56313
upperback 2.73477 -2.20376 -0.45326
thorax 0.739358 -1.17525 3.84084
lowerneck -13.1745 -1.31198 -1.49948
upperneck -0.00926613 -1.7013 8.22971
head 2.43275 -0.495042 2.88927
rclavicle 9.29318e-015 -2.18663e-015
rhumerus -57.6395 13.053 -83.4187
rradius 39.5075
rwrist -15.8064
rhand -19.5054 -1.21576
rfingers 7.12502
rthumb 6.81726 -31.086
lclavicle 9.29318e-015 -2.18663e-015
lhumerus -16.2679 -20.7408 83.1899
lradius 81.9368
lwrist 25.8986
lhand -16.9938 17.0513
lfingers 7.12502
lthumb 9.24132 46.8288
rfemur -41.3726 4.58926 14.8918
rtibia 29.5867
rfoot -17.392 -3.29268
rtoes 5.34357
lfemur 22.6425 8.24038 -27.3098
ltibia 3.49861e-014
lfoot -13.2747 3.99166
ltoes -13.2663
2376
root -11.1752 16.3076 -5.12648 2594.52 84.1468 73.8454
lowerback 4.25102 -1.5914 -7.5897
upperback 2.79821 -2.30683 -0.42756
thorax 0.803133 -1.23073 3.88444
lowerneck -13.1483 -1.23396 -1.30152
upperneck -0.0454189 -1.61541 7.95857
head 2.40131 -0.463473 2.76291
rclavicle -9.01985e-015 -3.1408e-014
rhumerus -58.0165 13.6322 -83.6385
rradius 40.5514
rwrist -16.073
rhand -19.6082 -1.34812
rfingers 7.12502
rthumb 6.71806 -31.2215
lclavicle -9.01985e-015 -3.1408e-014
lhumerus -16.3375 -20.6328 82.9816
lradius 82.3101
lwrist 25.7758
lhand -16.7863 17.05
lfingers 7.12502
lthumb 9.44158 46.8185
rfemur -41.6225 4.30969 14.7379
rtibia 29.0542
rfoot -17.106 -2.76754
rtoes 5.42816
lfemur 23.4076 8.34884 -27.364
ltibia -1.90833e-014
lfoot -13.1143 3.57472
ltoes -14.2652
2377
root -10.9694 16.2725 -5.135 2595.76 83.9933 75.0937
lowerback 4.2565 -1.6819 -7.55855
upperback 2.84202 -2.42401 -0.39264
thorax 0.860258 -1.29218 3.90514
lowerneck -13.1203 -1.1534 -1.10269
upperneck -0.028406 -1.53075 7.67763
head 2.38805 -0.432214 2.63431
rclavicle -1.11071e-014 -1.59028e-015
rhumerus -58.307 14.1646 -83.8282
rradius 41.4818
rwrist -16.2445
rhand -19.693 -1.47752
rfingers 7.12502
rthumb 6.63614 -31.3535
lclavicle -1.11071e-014 -1.59028e-015
lhumerus -16.547 -20.4609 82.8741
lradius 82.4532
lwrist 25.5603
lhand -16.5759 17.0309
lfingers 7.12502
lthumb 9.6445 46.7901
rfemur -41.79 4.05247 14.609
rtibia 28.7709
rfoot -16.8419 -2.44907
rtoes 5.65744
lfemur 24.1781 8.43749 -27.3673
ltibia -3.18055e-015
lfoot -12.812 3.12674
ltoes -15.3668
2378
root -10.7578 16.2418 -5.14302 2596.96 83.8619 76.287
lowerback 4.2312 -1.78036 -7.48488
upperback 2.86298 -2.54983 -0.347132
thorax 0.910188 -1.35696 3.91247
lowerneck -13.0855 -1.07301 -0.910623
upperneck 0.0329893 -1.449 7.3951
head 2.38947 -0.402072 2.50742
rclavicle 4.37326e-015 -6.95746e-015
rhumerus -58.5127 14.6517 -83.9869
rradius 42.2903
rwrist -16.3481
rhand -19.7527 -1.60656
rfingers 7.12502
rthumb 6.57858 -31.4844
lclavicle 4.37326e-015 -6.95746e-015
lhumerus -16.8979 -20.2242 82.8804
lradius 82.3466
lwrist 25.2635
lhand -16.349 16.9801
lfingers 7.12502
lthumb 9.86343 46.7291
rfemur -41.8803 3.91192 14.4431
rtibia 28.7428
rfoot -16.6222 -2.4241
rtoes 5.96709
lfemur 24.9513 8.51001 -27.3262
ltibia 3.18055e-015
lfoot -12.362 2.64773
ltoes -16.5552
2379
root -10.5399 16.2163 -5.15011 2598.11 83.7566 77.4285
lowerback 4.16801 -1.8837 -7.37346
upperback 2.86148 -2.67991 -0.286288
thorax 0.957058 -1.42319 3.91354
lowerneck -13.038 -0.995474 -0.72468
upperneck 0.128442 -1.37256 7.10788
head 2.40094 -0.374643 2.38066
rclavicle -2.79789e-014 0
rhumerus -58.6365 15.0925 -84.1138
rradius 42.9713
rwrist -16.4113
rhand -19.8059 -1.68613
rfingers 7.12502
rthumb 6.52723 -31.5655
lclavicle -2.79789e-014 0
lhumerus -17.3784 -19.9277 83.0077
lradius 81.9718
lwrist 24.9129
lhand -16.1341 16.8967
lfingers 7.12502
lthumb 10.0708 46.6357
rfemur -41.8953 3.92841 14.2208
rtibia 28.9681
rfoot -16.447 -2.71257
rtoes 6.30475
lfemur 25.7251 8.56622 -27.2367
ltibia -1.59028e-014
lfoot -11.7632 2.14956
ltoes -17.8074
2380
root -10.3158 16.1957 -5.15616 2599.24 83.6838 78.5299
lowerback 4.06935 -1.98982 -7.22119
upperback 2.83038 -2.81229 -0.205744
thorax 0.991764 -1.48945 3.91122
lowerneck -12.9858 -0.921095 -0.542529
upperneck 0.262009 -1.30198 6.80851
head 2.42518 -0.350232 2.25115
rclavicle -2.45499e-014 3.33958e-014
rhumerus -58.6919 15.4938 -84.2138
rradius 43.5252
rwrist -16.4708
rhand -19.838 -1.72219
rfingers 7.12502
rthumb 6.49622 -31.6026
lclavicle -2.45499e-014 3.33958e-014
lhumerus -17.9869 -19.5735 83.26
lradius 81.3235
lwrist 24.5356
lhand -15.9238 16.7961
lfingers 7.12502
lthumb 10.2737 46.5251
rfemur -41.8461 4.07801 13.9632
rtibia 29.438
rfoot -16.3128 -3.25717
rtoes 6.67612
lfemur 26.4914 8.60534 -27.0968
ltibia -9.54166e-014
lfoot -11.0103 1.65306
ltoes -19.0291
2381
root -10.0852 16.1798 -5.16126 2600.45 83.6458 79.6903
lowerback 3.92464 -2.0974 -7.02941
upperback 2.7741 -2.94432 -0.103111
thorax 1.02466 -1.55492 3.90798
lowerneck -12.9314 -0.852508 -0.366823
upperneck 0.425163 -1.23929 6.49533
head 2.45979 -0.33002 2.11856
rclavicle 2.51463e-014 7.95139e-016
rhumerus -58.6838 15.8506 -84.2838
rradius 43.9645
rwrist -16.5589
rhand -19.8571 -1.72271
rfingers 7.12502
rthumb 6.47773 -31.6036
lclavicle 2.51463e-014 7.95139e-016
lhumerus -18.6938 -19.1729 83.6335
lradius 80.3924
lwrist 24.1507
lhand -15.7595 16.6906
lfingers 7.12502
lthumb 10.4321 46.4117
rfemur -41.74 4.28833 13.7118
rtibia 30.1371
rfoot -16.2178 -3.96632
rtoes 7.08875
lfemur 27.246 8.61936 -26.9115
ltibia -1.59028e-014
lfoot -10.0973 1.18384
ltoes -20.0943
2382
root -9.84783 16.1681 -5.16553 2601.74 83.636 80.9198
lowerback 3.74049 -2.20062 -6.80128
upperback 2.68849 -3.06933 0.0201313
thorax 1.04702 -1.61589 3.90417
lowerneck -12.8814 -0.793075 -0.198409
upperneck 0.626254 -1.18906 6.16438
head 2.50898 -0.316216 1.98157
rclavicle 4.62174e-015 1.03368e-014
rhumerus -58.6379 16.1587 -84.3264
rradius 44.3059
rwrist -16.6961
rhand -19.8518 -1.72761
rfingers 7.12502
rthumb 6.48292 -31.6084
lclavicle 4.62174e-015 1.03368e-014
lhumerus -19.4851 -18.7431 84.124
lradius 79.1768
lwrist 23.7925
lhand -15.6532 16.5966
lfingers 7.12502
lthumb 10.5347 46.3126
rfemur -41.5851 4.48256 13.5136
rtibia 31.0436
rfoot -16.159 -4.80391
rtoes 7.3372
lfemur 27.9862 8.61299 -26.6939
ltibia -4.13472e-014
lfoot -9.01675 0.790164
ltoes -21.0201
2383
root -9.60372 16.161 -5.16901 2603.19 83.6469 82.2815
lowerback 3.51587 -2.29653 -6.5447
upperback 2.57652 -3.18349 0.161517
thorax 1.06247 -1.67069 3.90137
lowerneck -12.838 -0.743533 -0.0454642
upperneck 0.860217 -1.15054 5.82353
head 2.57162 -0.308287 1.84423
rclavicle 2.22639e-014 -8.34896e-015
rhumerus -58.5708 16.4068 -84.3372
rradius 44.5766
rwrist -16.891
rhand -19.8283 -1.76873
rfingers 7.12502
rthumb 6.50559 -31.6488
lclavicle 2.22639e-014 -8.34896e-015
lhumerus -20.3341 -18.2989 84.7218
lradius 77.6768
lwrist 23.4754
lhand -15.6315 16.5296
lfingers 7.12502
lthumb 10.5556 46.2445
rfemur -41.3962 4.59373 13.4015
rtibia 32.1241
rfoot -16.1084 -5.78765
rtoes 7.30514
lfemur 28.7068 8.58418 -26.4565
ltibia 3.49861e-014
lfoot -7.75098 0.503434
ltoes -21.7048
